{
  "asset": {
    "version": "2.0",
    "generator": "ModelConverterX"
  },
  "extensionsUsed": [
    "ASOBO_material_day_night_switch"
  ],
  "scene": 0,
  "scenes": [
    {
      "nodes": [
        0
      ]
    }
  ],
  "nodes": [
    {
      "name": "node0",
      "children": [
        1
      ]
    },
    {
      "name": "node1",
      "mesh": 0
    }
  ],
  "meshes": [
    {
      "primitives": [
        {
          "attributes": {
            "POSITION": 0,
            "NORMAL": 1,
            "TEXCOORD_0": 2
          },
          "indices": 3,
          "mode": 4,
          "material": 0
        }
      ],
      "name": "part000"
    }
  ],
  "accessors": [
    {
      "bufferView": 1,
      "byteOffset": 0,
      "componentType": 5126,
      "count": 2240,
      "type": "VEC3",
      "min": [
        0.35728999972343445,
        -0.41729998588562012,
        52.838039398193359
      ],
      "max": [
        0.56713998317718506,
        0.42138999700546265,
        54.032760620117188
      ]
    },
    {
      "bufferView": 2,
      "byteOffset": 0,
      "componentType": 5126,
      "count": 2240,
      "type": "VEC3"
    },
    {
      "bufferView": 3,
      "byteOffset": 0,
      "componentType": 5126,
      "count": 2240,
      "type": "VEC2"
    },
    {
      "bufferView": 0,
      "byteOffset": 0,
      "componentType": 5125,
      "count": 12252,
      "type": "SCALAR"
    }
  ],
  "materials": [
    {
      "name": "material00",
      "pbrMetallicRoughness": {
        "baseColorFactor": [
          0.5,
          0.5,
          0.5,
          1.0
        ],
        "roughnessFactor": 1.0,
        "metallicFactor": 1.0,
        "baseColorTexture": {
          "index": 0
        }
      },
      "emissiveFactor": [
        0.0,
        0.0,
        0.0
      ],
      "extensions": {
        "ASOBO_material_day_night_switch": {
          "enabled": true
        }
      }
    }
  ],
  "textures": [
    {
      "source": 0,
      "name": "combinaci贸ndecapa1-texturadifusi贸n"
    }
  ],
  "images": [
    {
      "uri": "combinaci贸ndecapa1-texturadifusi贸n.png"
    }
  ],
  "bufferViews": [
    {
      "buffer": 0,
      "byteOffset": 0,
      "byteLength": 49008
    },
    {
      "buffer": 0,
      "byteOffset": 49008,
      "byteLength": 26880,
      "byteStride": 12
    },
    {
      "buffer": 0,
      "byteOffset": 75888,
      "byteLength": 26880,
      "byteStride": 12
    },
    {
      "buffer": 0,
      "byteOffset": 102768,
      "byteLength": 17920,
      "byteStride": 8
    }
  ],
  "buffers": [
    {
      "byteLength": 120688,
      "uri": "Eared_dove_Zenaida_auriculata_Oliv0106_2-removebg-preview.bin"
    }
  ]
}